<mxfile host="65bd71144e">
    <diagram id="9X40vR4GRfzQD6FsARvR" name="Page-1">
        <mxGraphModel dx="1129" dy="-665" grid="1" gridSize="10" guides="1" tooltips="1" connect="1" arrows="1" fold="1" page="1" pageScale="1" pageWidth="850" pageHeight="1100" math="0" shadow="0">
            <root>
                <mxCell id="0"/>
                <mxCell id="1" parent="0"/>
                <mxCell id="3" value="" style="group" parent="1" vertex="1" connectable="0">
                    <mxGeometry x="102" y="1460" width="120" height="90" as="geometry"/>
                </mxCell>
                <mxCell id="4" value="data: 1" style="rounded=0;whiteSpace=wrap;html=1;" parent="3" vertex="1">
                    <mxGeometry y="30" width="120" height="30" as="geometry"/>
                </mxCell>
                <mxCell id="5" value="address:0x01" style="text;html=1;strokeColor=none;fillColor=none;align=center;verticalAlign=middle;whiteSpace=wrap;rounded=0;" parent="3" vertex="1">
                    <mxGeometry x="16" width="88" height="30" as="geometry"/>
                </mxCell>
                <mxCell id="6" value="next: 0x02" style="rounded=0;whiteSpace=wrap;html=1;" parent="3" vertex="1">
                    <mxGeometry y="60" width="120" height="30" as="geometry"/>
                </mxCell>
                <mxCell id="7" value="" style="group" parent="1" vertex="1" connectable="0">
                    <mxGeometry x="254" y="1624" width="120" height="90" as="geometry"/>
                </mxCell>
                <mxCell id="8" value="data: 2" style="rounded=0;whiteSpace=wrap;html=1;" parent="7" vertex="1">
                    <mxGeometry y="30" width="120" height="30" as="geometry"/>
                </mxCell>
                <mxCell id="9" value="address:0x02" style="text;html=1;strokeColor=none;fillColor=none;align=center;verticalAlign=middle;whiteSpace=wrap;rounded=0;" parent="7" vertex="1">
                    <mxGeometry x="7.5" width="105" height="30" as="geometry"/>
                </mxCell>
                <mxCell id="10" value="next: 0x03" style="rounded=0;whiteSpace=wrap;html=1;" parent="7" vertex="1">
                    <mxGeometry y="60" width="120" height="30" as="geometry"/>
                </mxCell>
                <mxCell id="11" value="" style="group" parent="1" vertex="1" connectable="0">
                    <mxGeometry x="404" y="1625" width="120" height="90" as="geometry"/>
                </mxCell>
                <mxCell id="12" value="data: 3" style="rounded=0;whiteSpace=wrap;html=1;" parent="11" vertex="1">
                    <mxGeometry y="30" width="120" height="30" as="geometry"/>
                </mxCell>
                <mxCell id="13" value="address:0x03" style="text;html=1;strokeColor=none;fillColor=none;align=center;verticalAlign=middle;whiteSpace=wrap;rounded=0;" parent="11" vertex="1">
                    <mxGeometry x="14.5" width="91" height="30" as="geometry"/>
                </mxCell>
                <mxCell id="14" value="next: NULL" style="rounded=0;whiteSpace=wrap;html=1;" parent="11" vertex="1">
                    <mxGeometry y="60" width="120" height="30" as="geometry"/>
                </mxCell>
                <mxCell id="15" style="edgeStyle=orthogonalEdgeStyle;html=1;entryX=0;entryY=0.5;entryDx=0;entryDy=0;" parent="1" source="10" target="12" edge="1">
                    <mxGeometry relative="1" as="geometry"/>
                </mxCell>
                <mxCell id="90" style="edgeStyle=orthogonalEdgeStyle;html=1;entryX=0.416;entryY=0.996;entryDx=0;entryDy=0;entryPerimeter=0;" parent="1" source="17" target="89" edge="1">
                    <mxGeometry relative="1" as="geometry"/>
                </mxCell>
                <mxCell id="17" value="first: 0x01" style="text;html=1;strokeColor=none;fillColor=none;align=center;verticalAlign=middle;whiteSpace=wrap;rounded=0;" parent="1" vertex="1">
                    <mxGeometry x="122" y="1758" width="60" height="30" as="geometry"/>
                </mxCell>
                <mxCell id="18" value="Node" style="text;html=1;strokeColor=none;fillColor=none;align=center;verticalAlign=middle;whiteSpace=wrap;rounded=0;" parent="1" vertex="1">
                    <mxGeometry x="282" y="1717" width="60" height="30" as="geometry"/>
                </mxCell>
                <mxCell id="19" style="edgeStyle=orthogonalEdgeStyle;html=1;entryX=0.55;entryY=1.024;entryDx=0;entryDy=0;entryPerimeter=0;" parent="1" source="20" target="14" edge="1">
                    <mxGeometry relative="1" as="geometry"/>
                </mxCell>
                <mxCell id="20" value="last: 0x03" style="text;html=1;strokeColor=none;fillColor=none;align=center;verticalAlign=middle;whiteSpace=wrap;rounded=0;" parent="1" vertex="1">
                    <mxGeometry x="440" y="1758" width="60" height="30" as="geometry"/>
                </mxCell>
                <mxCell id="21" value="" style="group" parent="1" vertex="1" connectable="0">
                    <mxGeometry x="100" y="1880" width="120" height="90" as="geometry"/>
                </mxCell>
                <mxCell id="22" value="data: 1" style="rounded=0;whiteSpace=wrap;html=1;" parent="21" vertex="1">
                    <mxGeometry y="30" width="120" height="30" as="geometry"/>
                </mxCell>
                <mxCell id="23" value="address:0x01" style="text;html=1;strokeColor=none;fillColor=none;align=center;verticalAlign=middle;whiteSpace=wrap;rounded=0;" parent="21" vertex="1">
                    <mxGeometry x="16" width="88" height="30" as="geometry"/>
                </mxCell>
                <mxCell id="24" value="next: 0x02" style="rounded=0;whiteSpace=wrap;html=1;" parent="21" vertex="1">
                    <mxGeometry y="60" width="120" height="30" as="geometry"/>
                </mxCell>
                <mxCell id="25" value="LinkedList" style="text;html=1;strokeColor=none;fillColor=none;align=center;verticalAlign=middle;whiteSpace=wrap;rounded=0;" parent="1" vertex="1">
                    <mxGeometry x="280" y="1590" width="60" height="30" as="geometry"/>
                </mxCell>
                <mxCell id="26" value="LinkedList" style="text;html=1;strokeColor=none;fillColor=none;align=center;verticalAlign=middle;whiteSpace=wrap;rounded=0;" parent="1" vertex="1">
                    <mxGeometry x="270" y="1990" width="60" height="30" as="geometry"/>
                </mxCell>
                <mxCell id="36" style="edgeStyle=none;html=1;entryX=0.5;entryY=1;entryDx=0;entryDy=0;" parent="1" source="27" target="35" edge="1">
                    <mxGeometry relative="1" as="geometry"/>
                </mxCell>
                <mxCell id="27" value="first: 0x01" style="text;html=1;strokeColor=none;fillColor=none;align=center;verticalAlign=middle;whiteSpace=wrap;rounded=0;" parent="1" vertex="1">
                    <mxGeometry x="142" y="2150" width="60" height="30" as="geometry"/>
                </mxCell>
                <mxCell id="37" style="edgeStyle=orthogonalEdgeStyle;html=1;entryX=1;entryY=0.5;entryDx=0;entryDy=0;" parent="1" source="29" target="33" edge="1">
                    <mxGeometry relative="1" as="geometry"/>
                </mxCell>
                <mxCell id="29" value="last: 0x01" style="text;html=1;strokeColor=none;fillColor=none;align=center;verticalAlign=middle;whiteSpace=wrap;rounded=0;" parent="1" vertex="1">
                    <mxGeometry x="282" y="2150" width="60" height="30" as="geometry"/>
                </mxCell>
                <mxCell id="30" value="Node" style="text;html=1;strokeColor=none;fillColor=none;align=center;verticalAlign=middle;whiteSpace=wrap;rounded=0;" parent="1" vertex="1">
                    <mxGeometry x="132" y="1595" width="60" height="30" as="geometry"/>
                </mxCell>
                <mxCell id="32" value="" style="group" parent="1" vertex="1" connectable="0">
                    <mxGeometry x="112" y="2030" width="120" height="90" as="geometry"/>
                </mxCell>
                <mxCell id="33" value="data: 111" style="rounded=0;whiteSpace=wrap;html=1;" parent="32" vertex="1">
                    <mxGeometry y="30" width="120" height="30" as="geometry"/>
                </mxCell>
                <mxCell id="34" value="address:0x01" style="text;html=1;strokeColor=none;fillColor=none;align=center;verticalAlign=middle;whiteSpace=wrap;rounded=0;" parent="32" vertex="1">
                    <mxGeometry x="16" width="88" height="30" as="geometry"/>
                </mxCell>
                <mxCell id="35" value="next: NULL" style="rounded=0;whiteSpace=wrap;html=1;" parent="32" vertex="1">
                    <mxGeometry y="60" width="120" height="30" as="geometry"/>
                </mxCell>
                <mxCell id="38" value="LinkedList" style="text;html=1;strokeColor=none;fillColor=none;align=center;verticalAlign=middle;whiteSpace=wrap;rounded=0;" parent="1" vertex="1">
                    <mxGeometry x="280" y="2250" width="60" height="30" as="geometry"/>
                </mxCell>
                <mxCell id="39" style="edgeStyle=none;html=1;entryX=0.5;entryY=1;entryDx=0;entryDy=0;" parent="1" source="40" target="46" edge="1">
                    <mxGeometry relative="1" as="geometry"/>
                </mxCell>
                <mxCell id="40" value="first: 0x01" style="text;html=1;strokeColor=none;fillColor=none;align=center;verticalAlign=middle;whiteSpace=wrap;rounded=0;" parent="1" vertex="1">
                    <mxGeometry x="152" y="2410" width="60" height="30" as="geometry"/>
                </mxCell>
                <mxCell id="41" style="edgeStyle=orthogonalEdgeStyle;html=1;entryX=1;entryY=0.5;entryDx=0;entryDy=0;" parent="1" source="42" target="44" edge="1">
                    <mxGeometry relative="1" as="geometry"/>
                </mxCell>
                <mxCell id="42" value="last: 0x01" style="text;html=1;strokeColor=none;fillColor=none;align=center;verticalAlign=middle;whiteSpace=wrap;rounded=0;" parent="1" vertex="1">
                    <mxGeometry x="292" y="2410" width="60" height="30" as="geometry"/>
                </mxCell>
                <mxCell id="43" value="" style="group" parent="1" vertex="1" connectable="0">
                    <mxGeometry x="122" y="2290" width="120" height="90" as="geometry"/>
                </mxCell>
                <mxCell id="44" value="data: 111" style="rounded=0;whiteSpace=wrap;html=1;" parent="43" vertex="1">
                    <mxGeometry y="30" width="120" height="30" as="geometry"/>
                </mxCell>
                <mxCell id="45" value="address:0x01" style="text;html=1;strokeColor=none;fillColor=none;align=center;verticalAlign=middle;whiteSpace=wrap;rounded=0;" parent="43" vertex="1">
                    <mxGeometry x="16" width="88" height="30" as="geometry"/>
                </mxCell>
                <mxCell id="46" value="next: NULL" style="rounded=0;whiteSpace=wrap;html=1;" parent="43" vertex="1">
                    <mxGeometry y="60" width="120" height="30" as="geometry"/>
                </mxCell>
                <mxCell id="47" value="" style="group" parent="1" vertex="1" connectable="0">
                    <mxGeometry x="310" y="2290" width="120" height="90" as="geometry"/>
                </mxCell>
                <mxCell id="48" value="data: 222" style="rounded=0;whiteSpace=wrap;html=1;" parent="47" vertex="1">
                    <mxGeometry y="30" width="120" height="30" as="geometry"/>
                </mxCell>
                <mxCell id="49" value="address:0x02" style="text;html=1;strokeColor=none;fillColor=none;align=center;verticalAlign=middle;whiteSpace=wrap;rounded=0;" parent="47" vertex="1">
                    <mxGeometry x="16" width="88" height="30" as="geometry"/>
                </mxCell>
                <mxCell id="50" value="next: NULL" style="rounded=0;whiteSpace=wrap;html=1;" parent="47" vertex="1">
                    <mxGeometry y="60" width="120" height="30" as="geometry"/>
                </mxCell>
                <mxCell id="51" value="new_node" style="text;html=1;strokeColor=none;fillColor=none;align=center;verticalAlign=middle;whiteSpace=wrap;rounded=0;" parent="1" vertex="1">
                    <mxGeometry x="440" y="2340" width="60" height="30" as="geometry"/>
                </mxCell>
                <mxCell id="52" style="edgeStyle=orthogonalEdgeStyle;html=1;entryX=0;entryY=0.5;entryDx=0;entryDy=0;" parent="1" source="56" target="58" edge="1">
                    <mxGeometry relative="1" as="geometry"/>
                </mxCell>
                <mxCell id="53" value="" style="group" parent="1" vertex="1" connectable="0">
                    <mxGeometry x="122" y="2554" width="120" height="90" as="geometry"/>
                </mxCell>
                <mxCell id="54" value="data: 1" style="rounded=0;whiteSpace=wrap;html=1;" parent="53" vertex="1">
                    <mxGeometry y="30" width="120" height="30" as="geometry"/>
                </mxCell>
                <mxCell id="55" value="address:0x01" style="text;html=1;strokeColor=none;fillColor=none;align=center;verticalAlign=middle;whiteSpace=wrap;rounded=0;" parent="53" vertex="1">
                    <mxGeometry x="16" width="88" height="30" as="geometry"/>
                </mxCell>
                <mxCell id="56" value="next: 0x02" style="rounded=0;whiteSpace=wrap;html=1;" parent="53" vertex="1">
                    <mxGeometry y="60" width="120" height="30" as="geometry"/>
                </mxCell>
                <mxCell id="57" value="" style="group" parent="1" vertex="1" connectable="0">
                    <mxGeometry x="274" y="2554" width="120" height="90" as="geometry"/>
                </mxCell>
                <mxCell id="58" value="data: 2" style="rounded=0;whiteSpace=wrap;html=1;" parent="57" vertex="1">
                    <mxGeometry y="30" width="120" height="30" as="geometry"/>
                </mxCell>
                <mxCell id="59" value="address:0x02" style="text;html=1;strokeColor=none;fillColor=none;align=center;verticalAlign=middle;whiteSpace=wrap;rounded=0;" parent="57" vertex="1">
                    <mxGeometry x="7.5" width="105" height="30" as="geometry"/>
                </mxCell>
                <mxCell id="60" value="next: 0x03" style="rounded=0;whiteSpace=wrap;html=1;" parent="57" vertex="1">
                    <mxGeometry y="60" width="120" height="30" as="geometry"/>
                </mxCell>
                <mxCell id="61" value="" style="group" parent="1" vertex="1" connectable="0">
                    <mxGeometry x="430" y="2550" width="120" height="90" as="geometry"/>
                </mxCell>
                <mxCell id="62" value="data: 3" style="rounded=0;whiteSpace=wrap;html=1;" parent="61" vertex="1">
                    <mxGeometry y="30" width="120" height="30" as="geometry"/>
                </mxCell>
                <mxCell id="63" value="address:0x03" style="text;html=1;strokeColor=none;fillColor=none;align=center;verticalAlign=middle;whiteSpace=wrap;rounded=0;" parent="61" vertex="1">
                    <mxGeometry x="14.5" width="91" height="30" as="geometry"/>
                </mxCell>
                <mxCell id="64" value="next: NULL" style="rounded=0;whiteSpace=wrap;html=1;" parent="61" vertex="1">
                    <mxGeometry y="60" width="120" height="30" as="geometry"/>
                </mxCell>
                <mxCell id="65" style="edgeStyle=orthogonalEdgeStyle;html=1;entryX=0;entryY=0.5;entryDx=0;entryDy=0;" parent="1" source="60" target="62" edge="1">
                    <mxGeometry relative="1" as="geometry"/>
                </mxCell>
                <mxCell id="66" style="edgeStyle=orthogonalEdgeStyle;html=1;" parent="1" source="67" edge="1">
                    <mxGeometry relative="1" as="geometry">
                        <mxPoint x="290" y="2650" as="targetPoint"/>
                    </mxGeometry>
                </mxCell>
                <mxCell id="67" value="first: 0x02" style="text;html=1;strokeColor=none;fillColor=none;align=center;verticalAlign=middle;whiteSpace=wrap;rounded=0;" parent="1" vertex="1">
                    <mxGeometry x="152" y="2690" width="60" height="30" as="geometry"/>
                </mxCell>
                <mxCell id="68" value="Node" style="text;html=1;strokeColor=none;fillColor=none;align=center;verticalAlign=middle;whiteSpace=wrap;rounded=0;" parent="1" vertex="1">
                    <mxGeometry x="302" y="2647" width="60" height="30" as="geometry"/>
                </mxCell>
                <mxCell id="82" style="edgeStyle=orthogonalEdgeStyle;html=1;entryX=0.5;entryY=1;entryDx=0;entryDy=0;" parent="1" source="70" target="64" edge="1">
                    <mxGeometry relative="1" as="geometry"/>
                </mxCell>
                <mxCell id="70" value="last: 0x03" style="text;html=1;strokeColor=none;fillColor=none;align=center;verticalAlign=middle;whiteSpace=wrap;rounded=0;" parent="1" vertex="1">
                    <mxGeometry x="460" y="2680" width="60" height="30" as="geometry"/>
                </mxCell>
                <mxCell id="71" value="LinkedList" style="text;html=1;strokeColor=none;fillColor=none;align=center;verticalAlign=middle;whiteSpace=wrap;rounded=0;" parent="1" vertex="1">
                    <mxGeometry x="300" y="2520" width="60" height="30" as="geometry"/>
                </mxCell>
                <mxCell id="72" value="Node" style="text;html=1;strokeColor=none;fillColor=none;align=center;verticalAlign=middle;whiteSpace=wrap;rounded=0;" parent="1" vertex="1">
                    <mxGeometry x="110" y="2640" width="60" height="30" as="geometry"/>
                </mxCell>
                <mxCell id="73" value="Node" style="text;html=1;strokeColor=none;fillColor=none;align=center;verticalAlign=middle;whiteSpace=wrap;rounded=0;" parent="1" vertex="1">
                    <mxGeometry x="415" y="2644" width="60" height="30" as="geometry"/>
                </mxCell>
                <mxCell id="74" value="" style="group" parent="1" vertex="1" connectable="0">
                    <mxGeometry x="320" y="2720" width="120" height="90" as="geometry"/>
                </mxCell>
                <mxCell id="75" value="data: 444" style="rounded=0;whiteSpace=wrap;html=1;" parent="74" vertex="1">
                    <mxGeometry y="30" width="120" height="30" as="geometry"/>
                </mxCell>
                <mxCell id="76" value="address:0x04" style="text;html=1;strokeColor=none;fillColor=none;align=center;verticalAlign=middle;whiteSpace=wrap;rounded=0;" parent="74" vertex="1">
                    <mxGeometry x="16" width="88" height="30" as="geometry"/>
                </mxCell>
                <mxCell id="77" value="next: NULL" style="rounded=0;whiteSpace=wrap;html=1;" parent="74" vertex="1">
                    <mxGeometry y="60" width="120" height="30" as="geometry"/>
                </mxCell>
                <mxCell id="84" style="edgeStyle=orthogonalEdgeStyle;html=1;" parent="1" source="83" target="55" edge="1">
                    <mxGeometry relative="1" as="geometry"/>
                </mxCell>
                <mxCell id="83" value="p_del: 0x01" style="text;html=1;strokeColor=none;fillColor=none;align=center;verticalAlign=middle;whiteSpace=wrap;rounded=0;" parent="1" vertex="1">
                    <mxGeometry x="152" y="2500" width="60" height="30" as="geometry"/>
                </mxCell>
                <mxCell id="86" value="" style="group" parent="1" vertex="1" connectable="0">
                    <mxGeometry x="102" y="1624" width="120" height="90" as="geometry"/>
                </mxCell>
                <mxCell id="87" value="data: 1" style="rounded=0;whiteSpace=wrap;html=1;" parent="86" vertex="1">
                    <mxGeometry y="30" width="120" height="30" as="geometry"/>
                </mxCell>
                <mxCell id="88" value="address:0x01" style="text;html=1;strokeColor=none;fillColor=none;align=center;verticalAlign=middle;whiteSpace=wrap;rounded=0;" parent="86" vertex="1">
                    <mxGeometry x="16" width="88" height="30" as="geometry"/>
                </mxCell>
                <mxCell id="89" value="next: 0x02" style="rounded=0;whiteSpace=wrap;html=1;" parent="86" vertex="1">
                    <mxGeometry y="60" width="120" height="30" as="geometry"/>
                </mxCell>
                <mxCell id="92" style="edgeStyle=orthogonalEdgeStyle;html=1;entryX=0;entryY=0.5;entryDx=0;entryDy=0;" parent="1" source="89" target="9" edge="1">
                    <mxGeometry relative="1" as="geometry"/>
                </mxCell>
                <mxCell id="93" value="LinkedList" style="text;html=1;strokeColor=none;fillColor=none;align=center;verticalAlign=middle;whiteSpace=wrap;rounded=0;" parent="1" vertex="1">
                    <mxGeometry x="260" y="1770" width="60" height="30" as="geometry"/>
                </mxCell>
                <mxCell id="94" value="first: 0x01" style="text;html=1;strokeColor=none;fillColor=none;align=center;verticalAlign=middle;whiteSpace=wrap;rounded=0;" parent="1" vertex="1">
                    <mxGeometry x="260" y="1810" width="60" height="30" as="geometry"/>
                </mxCell>
                <mxCell id="95" value="last: 0x03" style="text;html=1;strokeColor=none;fillColor=none;align=center;verticalAlign=middle;whiteSpace=wrap;rounded=0;" parent="1" vertex="1">
                    <mxGeometry x="260" y="1840" width="60" height="30" as="geometry"/>
                </mxCell>
            </root>
        </mxGraphModel>
    </diagram>
    <diagram id="a7G26e13F96VDZZ5I8ll" name="Page-2">
        <mxGraphModel dx="621" dy="435" grid="1" gridSize="10" guides="1" tooltips="1" connect="1" arrows="1" fold="1" page="1" pageScale="1" pageWidth="850" pageHeight="1100" math="0" shadow="0">
            <root>
                <mxCell id="0"/>
                <mxCell id="1" parent="0"/>
                <mxCell id="M8nmqphm-ka3GOK9FD5u-5" value="LinkedList" style="text;html=1;strokeColor=none;fillColor=none;align=center;verticalAlign=middle;whiteSpace=wrap;rounded=0;" parent="1" vertex="1">
                    <mxGeometry x="310" y="70" width="60" height="30" as="geometry"/>
                </mxCell>
                <mxCell id="50xD1v5i7dp2-lZaWB9Z-5" style="edgeStyle=orthogonalEdgeStyle;html=1;entryX=0.417;entryY=1;entryDx=0;entryDy=0;entryPerimeter=0;" parent="1" source="M8nmqphm-ka3GOK9FD5u-6" target="50xD1v5i7dp2-lZaWB9Z-4" edge="1">
                    <mxGeometry relative="1" as="geometry"/>
                </mxCell>
                <mxCell id="M8nmqphm-ka3GOK9FD5u-6" value="first: 0x01" style="text;html=1;strokeColor=none;fillColor=none;align=center;verticalAlign=middle;whiteSpace=wrap;rounded=0;" parent="1" vertex="1">
                    <mxGeometry x="190" y="270" width="60" height="30" as="geometry"/>
                </mxCell>
                <mxCell id="r6-BZyOCxH_gVF82Uan9-6" style="edgeStyle=none;html=1;entryX=0.5;entryY=1;entryDx=0;entryDy=0;" edge="1" parent="1" source="M8nmqphm-ka3GOK9FD5u-7" target="r6-BZyOCxH_gVF82Uan9-4">
                    <mxGeometry relative="1" as="geometry"/>
                </mxCell>
                <mxCell id="M8nmqphm-ka3GOK9FD5u-7" value="last: 0x03" style="text;html=1;strokeColor=none;fillColor=none;align=center;verticalAlign=middle;whiteSpace=wrap;rounded=0;" parent="1" vertex="1">
                    <mxGeometry x="570" y="260" width="60" height="40" as="geometry"/>
                </mxCell>
                <mxCell id="50xD1v5i7dp2-lZaWB9Z-1" value="" style="group" parent="1" vertex="1" connectable="0">
                    <mxGeometry x="170" y="130" width="120" height="90" as="geometry"/>
                </mxCell>
                <mxCell id="50xD1v5i7dp2-lZaWB9Z-2" value="data: 111" style="rounded=0;whiteSpace=wrap;html=1;" parent="50xD1v5i7dp2-lZaWB9Z-1" vertex="1">
                    <mxGeometry y="30" width="120" height="30" as="geometry"/>
                </mxCell>
                <mxCell id="50xD1v5i7dp2-lZaWB9Z-3" value="address:0x01" style="text;html=1;strokeColor=none;fillColor=none;align=center;verticalAlign=middle;whiteSpace=wrap;rounded=0;" parent="50xD1v5i7dp2-lZaWB9Z-1" vertex="1">
                    <mxGeometry x="16" width="88" height="30" as="geometry"/>
                </mxCell>
                <mxCell id="50xD1v5i7dp2-lZaWB9Z-4" value="next: 0x02" style="rounded=0;whiteSpace=wrap;html=1;" parent="50xD1v5i7dp2-lZaWB9Z-1" vertex="1">
                    <mxGeometry y="60" width="120" height="30" as="geometry"/>
                </mxCell>
                <mxCell id="50xD1v5i7dp2-lZaWB9Z-7" value="" style="group" parent="1" vertex="1" connectable="0">
                    <mxGeometry x="360" y="130" width="120" height="90" as="geometry"/>
                </mxCell>
                <mxCell id="50xD1v5i7dp2-lZaWB9Z-8" value="data: 222" style="rounded=0;whiteSpace=wrap;html=1;" parent="50xD1v5i7dp2-lZaWB9Z-7" vertex="1">
                    <mxGeometry y="30" width="120" height="30" as="geometry"/>
                </mxCell>
                <mxCell id="50xD1v5i7dp2-lZaWB9Z-9" value="address:0x02" style="text;html=1;strokeColor=none;fillColor=none;align=center;verticalAlign=middle;whiteSpace=wrap;rounded=0;" parent="50xD1v5i7dp2-lZaWB9Z-7" vertex="1">
                    <mxGeometry x="16" width="88" height="30" as="geometry"/>
                </mxCell>
                <mxCell id="50xD1v5i7dp2-lZaWB9Z-10" value="next: 0x03" style="rounded=0;whiteSpace=wrap;html=1;" parent="50xD1v5i7dp2-lZaWB9Z-7" vertex="1">
                    <mxGeometry y="60" width="120" height="30" as="geometry"/>
                </mxCell>
                <mxCell id="50xD1v5i7dp2-lZaWB9Z-11" style="edgeStyle=orthogonalEdgeStyle;html=1;entryX=0;entryY=0.5;entryDx=0;entryDy=0;" parent="1" source="50xD1v5i7dp2-lZaWB9Z-4" target="50xD1v5i7dp2-lZaWB9Z-9" edge="1">
                    <mxGeometry relative="1" as="geometry"/>
                </mxCell>
                <mxCell id="r6-BZyOCxH_gVF82Uan9-1" value="" style="group" vertex="1" connectable="0" parent="1">
                    <mxGeometry x="540" y="130" width="120" height="90" as="geometry"/>
                </mxCell>
                <mxCell id="r6-BZyOCxH_gVF82Uan9-2" value="data: 333" style="rounded=0;whiteSpace=wrap;html=1;" vertex="1" parent="r6-BZyOCxH_gVF82Uan9-1">
                    <mxGeometry y="30" width="120" height="30" as="geometry"/>
                </mxCell>
                <mxCell id="r6-BZyOCxH_gVF82Uan9-3" value="address:0x03" style="text;html=1;strokeColor=none;fillColor=none;align=center;verticalAlign=middle;whiteSpace=wrap;rounded=0;" vertex="1" parent="r6-BZyOCxH_gVF82Uan9-1">
                    <mxGeometry x="16" width="88" height="30" as="geometry"/>
                </mxCell>
                <mxCell id="r6-BZyOCxH_gVF82Uan9-4" value="next: NULL" style="rounded=0;whiteSpace=wrap;html=1;" vertex="1" parent="r6-BZyOCxH_gVF82Uan9-1">
                    <mxGeometry y="60" width="120" height="30" as="geometry"/>
                </mxCell>
                <mxCell id="r6-BZyOCxH_gVF82Uan9-7" style="edgeStyle=none;html=1;" edge="1" parent="1" source="50xD1v5i7dp2-lZaWB9Z-10" target="r6-BZyOCxH_gVF82Uan9-3">
                    <mxGeometry relative="1" as="geometry">
                        <Array as="points">
                            <mxPoint x="520" y="210"/>
                            <mxPoint x="520" y="145"/>
                        </Array>
                    </mxGeometry>
                </mxCell>
            </root>
        </mxGraphModel>
    </diagram>
</mxfile>